<svg xmlns="http://www.w3.org/2000/svg" xmlns:xlink="http://www.w3.org/1999/xlink" contentStyleType="text/css" data-diagram-type="DESCRIPTION" height="936px" preserveAspectRatio="none" style="width:952px;height:936px;background:#FFFFFF;" version="1.1" viewBox="0 0 952 936" width="952px" zoomAndPan="magnify"><?plantuml 1.2026.3beta6?><defs/><g><g class="title" data-source-line="33"><text fill="#000000" font-family="sans-serif" font-size="14" font-weight="700" lengthAdjust="spacing" textLength="267.9346" x="338.693" y="28.9951">OTP Relay &#8212; Phase 1 architecture</text><text fill="#6B7280" font-family="sans-serif" font-size="11" font-weight="700" lengthAdjust="spacing" textLength="241.4199" x="351.9504" y="42.5073">single node K3s, one pod, no Redis yet</text></g><!--cluster K3S--><g class="cluster" data-qualified-name="K3S" data-source-line="42" id="ent0004"><polygon fill="#E1F5EE" points="16,133.1016,26,123.1016,529,123.1016,529,822.1616,519,832.1616,16,832.1616,16,133.1016" style="stroke:#181818;stroke-width:1;"/><line style="stroke:#181818;stroke-width:1;" x1="519" x2="529" y1="133.1016" y2="123.1016"/><line style="stroke:#181818;stroke-width:1;" x1="16" x2="519" y1="133.1016" y2="133.1016"/><line style="stroke:#181818;stroke-width:1;" x1="519" x2="519" y1="133.1016" y2="832.1616"/><text fill="#000000" font-family="sans-serif" font-size="12" font-weight="700" lengthAdjust="spacing" textLength="188.2031" x="174.3984" y="153.2402">Bare metal K3s node &#8212; DC1</text></g><!--cluster NS--><g class="cluster" data-qualified-name="K3S.NS" data-source-line="46" id="ent0006"><polygon fill="#EEEDFE" points="40,410.3516,50,400.3516,505,400.3516,505,798.1616,495,808.1616,40,808.1616,40,410.3516" style="stroke:#181818;stroke-width:1;"/><line style="stroke:#181818;stroke-width:1;" x1="495" x2="505" y1="410.3516" y2="400.3516"/><line style="stroke:#181818;stroke-width:1;" x1="40" x2="495" y1="410.3516" y2="410.3516"/><line style="stroke:#181818;stroke-width:1;" x1="495" x2="495" y1="410.3516" y2="808.1616"/><text fill="#000000" font-family="sans-serif" font-size="12" font-weight="700" lengthAdjust="spacing" textLength="148.4824" x="194.2588" y="430.4902">Namespace: otp-relay</text></g><!--cluster POD--><g class="cluster" data-qualified-name="K3S.NS.POD" data-source-line="48" id="ent0007"><polygon fill="#AFA9EC" points="64,467.3516,74,457.3516,481,457.3516,481,619.2516,471,629.2516,64,629.2516,64,467.3516" style="stroke:#181818;stroke-width:1;"/><line style="stroke:#181818;stroke-width:1;" x1="471" x2="481" y1="467.3516" y2="457.3516"/><line style="stroke:#181818;stroke-width:1;" x1="64" x2="471" y1="467.3516" y2="467.3516"/><line style="stroke:#181818;stroke-width:1;" x1="471" x2="471" y1="467.3516" y2="629.2516"/><text fill="#000000" font-family="sans-serif" font-size="12" font-weight="700" lengthAdjust="spacing" textLength="96.2461" x="220.377" y="487.4902">Pod: otp-relay</text></g><!--entity INGRESS--><g class="entity" data-qualified-name="K3S.INGRESS" data-source-line="44" id="ent0005"><rect fill="#9FE1CB" height="73.9063" rx="2.5" ry="2.5" style="stroke:#181818;stroke-width:1;" width="168.3301" x="288.83" y="205.1016"/><text fill="#000000" font-family="sans-serif" font-size="12" font-weight="700" lengthAdjust="spacing" textLength="120.1992" x="312.8954" y="232.2402">Ingress controller</text><text fill="#000000" font-family="sans-serif" font-size="12" lengthAdjust="spacing" textLength="136.3301" x="304.83" y="246.209">nginx, TLS termination</text><text fill="#000000" font-family="sans-serif" font-size="12" lengthAdjust="spacing" textLength="70.8457" x="337.5722" y="260.1777">MetalLB VIP</text></g><!--entity PVC--><g class="entity" data-qualified-name="K3S.NS.PVC" data-source-line="57" id="ent0011"><path d="M56.07,719.2516 C56.07,709.2516 151.0046,709.2516 151.0046,709.2516 C151.0046,709.2516 245.9391,709.2516 245.9391,719.2516 L245.9391,782.1578 C245.9391,792.1578 151.0046,792.1578 151.0046,792.1578 C151.0046,792.1578 56.07,792.1578 56.07,782.1578 L56.07,719.2516" fill="#D3D1C7" style="stroke:#181818;stroke-width:1;"/><path d="M56.07,719.2516 C56.07,729.2516 151.0046,729.2516 151.0046,729.2516 C151.0046,729.2516 245.9391,729.2516 245.9391,719.2516" fill="none" style="stroke:#181818;stroke-width:1;"/><text fill="#000000" font-family="sans-serif" font-size="12" font-weight="700" lengthAdjust="spacing" textLength="157.8691" x="72.07" y="750.3902">PersistentVolumeClaim</text><text fill="#000000" font-family="sans-serif" font-size="12" lengthAdjust="spacing" textLength="91.1016" x="105.4538" y="764.359">data/users.xlsx</text><text fill="#000000" font-family="sans-serif" font-size="12" lengthAdjust="spacing" textLength="83.7949" x="109.1071" y="778.3277">data/audit.log</text></g><!--entity APP--><g class="entity" data-qualified-name="K3S.NS.POD.APP" data-source-line="50" id="ent0008"><rect fill="#CECBF6" height="73.9063" rx="2.5" ry="2.5" style="stroke:#181818;stroke-width:1;" width="136.9531" x="79.52" y="539.3516"/><text fill="#000000" font-family="sans-serif" font-size="12" font-weight="700" lengthAdjust="spacing" textLength="100.3945" x="97.7993" y="566.4902">Container: app</text><text fill="#000000" font-family="sans-serif" font-size="12" lengthAdjust="spacing" textLength="104.9531" x="95.52" y="580.459">uvicorn, 1 worker</text><text fill="#000000" font-family="sans-serif" font-size="12" lengthAdjust="spacing" textLength="58.9512" x="118.521" y="594.4277">port 8000</text></g><!--entity MEM--><g class="entity" data-qualified-name="K3S.NS.POD.MEM" data-source-line="52" id="ent0009"><rect fill="#F1EFE8" height="73.9063" rx="2.5" ry="2.5" style="stroke:#181818;stroke-width:1;" width="158.6855" x="306.66" y="539.3516"/><text fill="#000000" font-family="sans-serif" font-size="12" font-weight="700" lengthAdjust="spacing" textLength="111.7969" x="330.1043" y="566.4902">in-memory state</text><text fill="#000000" font-family="sans-serif" font-size="12" lengthAdjust="spacing" textLength="126.6855" x="322.66" y="580.459">claim_queue (deque)</text><text fill="#000000" font-family="sans-serif" font-size="12" lengthAdjust="spacing" textLength="116.127" x="327.9393" y="594.4277">pending_otps (dict)</text></g><!--entity USER--><g class="entity" data-qualified-name="USER" data-source-line="37" id="ent0002"><ellipse cx="585.0026" cy="198.2516" fill="#F1F1F1" rx="8" ry="8" style="stroke:#181818;stroke-width:0.5;"/><path d="M585.0026,206.2516 L585.0026,233.2516 M572.0026,214.2516 L598.0026,214.2516 M585.0026,233.2516 L572.0026,248.2516 M585.0026,233.2516 L598.0026,248.2516" fill="none" style="stroke:#181818;stroke-width:0.5;"/><text fill="#000000" font-family="sans-serif" font-size="14" lengthAdjust="spacing" textLength="31.9102" x="569.0475" y="268.7467">User</text><text fill="#000000" font-family="sans-serif" font-size="14" lengthAdjust="spacing" textLength="67.2451" x="551.38" y="285.0436">(browser)</text></g><!--entity PHONE--><g class="entity" data-qualified-name="PHONE" data-source-line="38" id="ent0003"><ellipse cx="722.0018" cy="198.2516" fill="#F1F1F1" rx="8" ry="8" style="stroke:#181818;stroke-width:0.5;"/><path d="M722.0018,206.2516 L722.0018,233.2516 M709.0018,214.2516 L735.0018,214.2516 M722.0018,233.2516 L709.0018,248.2516 M722.0018,233.2516 L735.0018,248.2516" fill="none" style="stroke:#181818;stroke-width:0.5;"/><text fill="#000000" font-family="sans-serif" font-size="14" lengthAdjust="spacing" textLength="47.2568" x="698.3734" y="268.7467">iPhone</text><text fill="#000000" font-family="sans-serif" font-size="14" lengthAdjust="spacing" textLength="103.2637" x="670.37" y="285.0436">(SMS shortcut)</text></g><!--entity SMTP--><g class="entity" data-qualified-name="SMTP" data-source-line="63" id="ent0012"><rect fill="#F1EFE8" height="73.9063" rx="2.5" ry="2.5" style="stroke:#181818;stroke-width:1;" width="149.3926" x="545.3" y="539.3516"/><text fill="#000000" font-family="sans-serif" font-size="12" font-weight="700" lengthAdjust="spacing" textLength="106.7051" x="566.6438" y="566.4902">Exchange SMTP</text><text fill="#000000" font-family="sans-serif" font-size="12" lengthAdjust="spacing" textLength="97.207" x="571.3928" y="580.459">diagnostics only</text><text fill="#000000" font-family="sans-serif" font-size="12" lengthAdjust="spacing" textLength="117.3926" x="561.3" y="594.4277">port 25 anonymous</text></g><g class="entity" data-qualified-name="GMN18" data-source-line="77" id="ent0019"><path d="M545.49,720.5016 L545.49,780.9156 L732.5007,780.9156 L732.5007,730.5016 L722.5007,720.5016 L545.49,720.5016" fill="#F9FAFB" style="stroke:#D1D5DB;stroke-width:0.5;"/><path d="M722.5007,720.5016 L722.5007,730.5016 L732.5007,730.5016 L722.5007,720.5016" fill="#F9FAFB" style="stroke:#D1D5DB;stroke-width:1;"/><text fill="#6B7280" font-family="sans-serif" font-size="11" lengthAdjust="spacing" textLength="108.1953" x="580.3977" y="741.712">Lost on pod restart.</text><text fill="#6B7280" font-family="sans-serif" font-size="11" lengthAdjust="spacing" textLength="115.2905" x="576.8501" y="754.5167">Accepted in Phase 1.</text><text fill="#6B7280" font-family="sans-serif" font-size="11" lengthAdjust="spacing" textLength="154.0107" x="557.49" y="767.3214">Fixed in Phase 2 with Redis.</text></g><g class="entity" data-qualified-name="GMN21" data-source-line="83" id="ent0022"><path d="M73.17,874.1616 L73.17,921.7709 A0,0 0 0 0 73.17,921.7709 L228.835,921.7709 A0,0 0 0 0 228.835,921.7709 L228.835,884.1616 L218.835,874.1616 L155,874.1616 L151,792.5616 L147,874.1616 L73.17,874.1616 A0,0 0 0 0 73.17,874.1616" fill="#F9FAFB" style="stroke:#D1D5DB;stroke-width:0.5;"/><path d="M218.835,874.1616 L218.835,884.1616 L228.835,884.1616 L218.835,874.1616" fill="#F9FAFB" style="stroke:#D1D5DB;stroke-width:0.5;"/><text fill="#6B7280" font-family="sans-serif" font-size="11" lengthAdjust="spacing" textLength="96.6851" x="98.16" y="895.372">Survives restarts.</text><text fill="#6B7280" font-family="sans-serif" font-size="11" lengthAdjust="spacing" textLength="122.665" x="85.17" y="908.1767">Mounted at /app/data.</text></g><g class="entity" data-qualified-name="GMN24" data-source-line="88" id="ent0025"><path d="M734.68,552.5016 L734.68,572.3016 L695.09,576.3016 L734.68,580.3016 L734.68,600.1109 A0,0 0 0 0 734.68,600.1109 L937.3206,600.1109 A0,0 0 0 0 937.3206,600.1109 L937.3206,562.5016 L927.3206,552.5016 L734.68,552.5016 A0,0 0 0 0 734.68,552.5016" fill="#F9FAFB" style="stroke:#D1D5DB;stroke-width:0.5;"/><path d="M927.3206,552.5016 L927.3206,562.5016 L937.3206,562.5016 L927.3206,552.5016" fill="#F9FAFB" style="stroke:#D1D5DB;stroke-width:0.5;"/><text fill="#6B7280" font-family="sans-serif" font-size="11" lengthAdjust="spacing" textLength="152.0718" x="755.4644" y="573.712">OTP is displayed on-screen.</text><text fill="#6B7280" font-family="sans-serif" font-size="11" lengthAdjust="spacing" textLength="169.6406" x="746.68" y="586.5167">Email is NOT used for delivery.</text></g><!--link APP to MEM--><g class="link" data-entity-1="ent0008" data-entity-2="ent0009" data-link-type="dependency" data-source-line="54" id="lnk10"><path d="M216.84,576.3016 C244.85,576.3016 271.39,576.3016 300.41,576.3016" fill="none" id="APP-to-MEM" style="stroke:#6B7280;stroke-width:1.5;"/><polygon fill="#6B7280" points="306.41,576.3016,297.41,572.3016,301.41,576.3016,297.41,580.3016,306.41,576.3016" style="stroke:#6B7280;stroke-width:1.5;"/><text fill="#6B7280" font-family="sans-serif" font-size="11" lengthAdjust="spacing" textLength="37.9468" x="243.07" y="551.512">reads /</text><text fill="#6B7280" font-family="sans-serif" font-size="11" lengthAdjust="spacing" textLength="33.3867" x="245.35" y="564.3167">writes</text></g><!--link USER to INGRESS--><g class="link" data-entity-1="ent0002" data-entity-2="ent0005" data-link-type="dependency" data-source-line="67" id="lnk13"><path d="M545.08,242.0516 C520.35,242.0516 493.65,242.0516 463.4,242.0516" fill="none" id="USER-to-INGRESS" style="stroke:#6B7280;stroke-width:1.5;"/><polygon fill="#6B7280" points="457.4,242.0516,466.4,246.0516,462.4,242.0516,466.4,238.0516,457.4,242.0516" style="stroke:#6B7280;stroke-width:1.5;"/><text fill="#6B7280" font-family="sans-serif" font-size="11" lengthAdjust="spacing" textLength="35.3257" x="483.77" y="230.262">HTTPS</text></g><!--link PHONE to INGRESS--><g class="link" data-entity-1="ent0003" data-entity-2="ent0005" data-link-type="dependency" data-source-line="68" id="lnk14"><path d="M701.59,189.4716 C688.97,163.4916 670.3,133.7816 645,115.1016 C597.35,79.9016 566.86,83.9316 512,106.2816 C463.42,126.0716 426.1576,167.1023 401.5776,200.0523" fill="none" id="PHONE-to-INGRESS" style="stroke:#6B7280;stroke-width:1.5;"/><polygon fill="#6B7280" points="397.99,204.8616,406.5776,200.0394,400.9797,200.8538,400.1652,195.2559,397.99,204.8616" style="stroke:#6B7280;stroke-width:1.5;"/><text fill="#6B7280" font-family="sans-serif" font-size="11" lengthAdjust="spacing" textLength="35.3257" x="543.554" y="85.312">HTTPS</text><text fill="#6B7280" font-family="sans-serif" font-size="11" lengthAdjust="spacing" textLength="84.4336" x="519" y="98.1167">X-Secret-Token</text></g><!--link INGRESS to APP--><g class="link" data-entity-1="ent0005" data-entity-2="ent0008" data-link-type="dependency" data-source-line="70" id="lnk15"><path d="M343.87,279.4516 C334.14,291.9416 323.39,306.1016 314,319.3516 C259.77,395.8216 204.3339,483.7973 173.3339,533.9673" fill="none" id="INGRESS-to-APP" style="stroke:#6B7280;stroke-width:1.5;"/><polygon fill="#6B7280" points="170.18,539.0716,178.3136,533.5178,172.8082,534.8181,171.508,529.3127,170.18,539.0716" style="stroke:#6B7280;stroke-width:1.5;"/><text fill="#6B7280" font-family="sans-serif" font-size="11" lengthAdjust="spacing" textLength="63.54" x="327.8669" y="336.562">HTTP :8000</text><text fill="#6B7280" font-family="sans-serif" font-size="11" lengthAdjust="spacing" textLength="55.3169" x="331.9785" y="349.3667">/claim-otp</text><text fill="#6B7280" font-family="sans-serif" font-size="11" lengthAdjust="spacing" textLength="71.0918" x="324.0911" y="362.1714">/claim-status</text><text fill="#6B7280" font-family="sans-serif" font-size="11" lengthAdjust="spacing" textLength="77.2739" x="321" y="374.9761">/sms-received</text></g><!--link APP to PVC--><g class="link" data-entity-1="ent0008" data-entity-2="ent0011" data-link-type="dependency" data-source-line="72" id="lnk16"><path d="M148.63,613.4416 C149.11,641.2916 149.6744,673.8025 150.1844,702.7825" fill="none" id="APP-to-PVC" style="stroke:#6B7280;stroke-width:1.5;"/><polygon fill="#6B7280" points="150.29,708.7816,154.131,699.7126,150.202,703.7823,146.1323,699.8533,150.29,708.7816" style="stroke:#6B7280;stroke-width:1.5;"/><text fill="#6B7280" font-family="sans-serif" font-size="11" lengthAdjust="spacing" textLength="89.2676" x="157" y="662.462">reads users.xlsx</text><text fill="#6B7280" font-family="sans-serif" font-size="11" lengthAdjust="spacing" textLength="85.2124" x="159.0276" y="675.2667">writes audit.log</text></g><!--link APP to SMTP--><g class="link" data-entity-1="ent0008" data-entity-2="ent0012" data-link-type="dependency" data-source-line="74" id="lnk17"><path d="M163.61,539.1816 C184.46,495.0116 225.97,423.3516 287,392.3516 C367.05,351.6916 409.31,348.9016 489,390.2616 C549.13,421.4616 585.1679,488.8191 603.9379,533.5391" fill="none" id="APP-to-SMTP" style="stroke:#6B7280;stroke-width:1.5;"/><polygon fill="#6B7280" points="606.26,539.0716,606.4652,529.2248,604.3249,534.4612,599.0886,532.321,606.26,539.0716" style="stroke:#6B7280;stroke-width:1.5;"/><text fill="#6B7280" font-family="sans-serif" font-size="11" lengthAdjust="spacing" textLength="60.688" x="422" y="349.562">test emails</text><text fill="#6B7280" font-family="sans-serif" font-size="11" lengthAdjust="spacing" textLength="23.2676" x="440.7102" y="362.3667">only</text></g><!--link MEM to GMN18--><g class="link" data-entity-1="ent0009" data-entity-2="ent0019" data-link-type="association" data-source-line="77" id="lnk20"><path d="M455.28,613.7416 C472.5,623.4616 490.69,634.3216 507,645.2516 C541.71,668.5216 578.83,698.3916 604.84,720.2216" fill="none" id="MEM-GMN18" style="stroke:#6B7280;stroke-width:1.5;stroke-dasharray:7,7;"/></g><?plantuml-src tLRRJkD847ttLvJWOMSG8HWM1YA4b8ize269XJFiF4GQDNQHj69tUxlRaEmAQJvYld2-PAiSvmApkzBk8r8KkQkhJbswJdNRcLI5C287EnMfVf9g0WyYi-ZPzKwA3wBCt0Zdhft9YSfHEKZe3ysMbj8fMYpWryCjeH5gniAJRM4XqfJzd6x9siRefwxEj87Tqyw7exF3rvkZgKnc2gq5_-3azMQebVjNQrQ8vHy8lkzjnuU94sgI8Vpf0MoKZcZLqIP5i-NMU_PUvVlVhLBXnBsm_ykVMrfrH3AR65sgjCuuF0_ROMUDK4jxVk-artdXnQzNBoj5NfnqL8BXA89RpCG2Vdpx3j6Km_H1c6Gg7TMfD3XM5vQGMhv_UP4mIAi6kRIogc9Lb4_7TX-qGYXqkayY0asbXGMwYsPbTNdHP9XBp_i5Vdp_HZ_u70UtSRruCp_F4ucZIkzyjcZ6wjqzDI9zlTy1OQkCL_iocbAzI2FknqH4RLnIkgLQT3KS15k5-dGSms3O2-2jbAXgcPsEC0WvEf5n-opxYBkmr_MhCd3Qku4VdWG1aO3wUCFSdRszQpKnJ9c4cjleB4EpjpTMQYBLV1z6Dp7GgCgb4avgDLPzTdFJWRlhgCA-7doy3MB2Fmy3lzjXz6LG0v6ZBKI2BT2kQ1ZcHcKnu622e1VMmQmC8fs-Les6FTXjX-tpeBlIVHLybu8MKg5fWIWA3hnyb8asQf_OzwJDZ7kde9w0iyF3mmgq7KMmsmswdV3qRo6bQkIOQxC0wuH3namo8VEllvTO8hnBaJxU4oegdiHVAMHBKfdKJTSF-ZHM_20CpbRuxB9Xv6Jg6fVLVejSYjH2SwoU30q8Moa-B_NNOuw2YT1OQHtT5tSwAtFiSYGS4YirIoA4FPXdTbuBH9bATv3foR9yTrqQPSSzl_l1O_JdBIe4NxfNxS77jqE55sSOp9CfBH3Y_YYgoYN5H6dhP69fkcQBkYcEJa0ehHQvBcrLCjRVdDwwMk7DyBStE65vZCAcCrTSflQy6esYsAlcvp_lZzMNHeo9GTSOwHagprjfDEWrfCY26t-f32qcu5WrAourY3JhRwPPQMbfSqlaJr0-Okfv5Mbg7Exa5MUsctv97bYtVMsr2hWwpHODCEi0So4pyiAdpuEJ7WJtsZcTWtvWJX93RgX1g3luwYLV59Pn1oHk9maM3bEGQdMnipYKystP4Jn9DrrUrmSUpORgqV6J9yg4REFIF5AMTkN6Cc2VdYNiHZXeqZ1hCgD_GgfIOo3EZOputK7l0t9QqDGaQwqQbeu45KC6d3Jl3uOZBbmA3tHbffYHSxFOWFy5?></g></svg>
